<?xml version="1.0" encoding="utf-8"?>
<!-- Generator: Adobe Illustrator 27.3.1, SVG Export Plug-In . SVG Version: 6.00 Build 0)  -->
<svg version="1.1" id="Capa_1" xmlns="http://www.w3.org/2000/svg" xmlns:xlink="http://www.w3.org/1999/xlink" x="0px" y="0px"
	 viewBox="0 0 42.3 36.7" style="enable-background:new 0 0 42.3 36.7;" xml:space="preserve">
<g>
	<path d="M21.5,35.3c-9.3,0-16.9-7.6-16.9-16.9S12.2,1.5,21.5,1.5s16.9,7.6,16.9,16.9S30.8,35.3,21.5,35.3z M21.5,3.9
		C13.5,3.9,7,10.4,7,18.4s6.5,14.5,14.5,14.5S36,26.4,36,18.4S29.5,3.9,21.5,3.9z"/>
	<g>
		<path d="M23.4,23.5c0.4,0,0.8,0,1.1,0c0,0.7,0,1.3,0,1.9c-0.1,0-0.1,0-0.2,0c-1.9,0-3.8,0-5.7,0c-0.2,0-0.2,0-0.2-0.2
			c0-0.5,0-1,0-1.6c0-0.1,0-0.2,0.2-0.2c0.3,0,0.7,0,1,0c0.1,0,0.2,0,0.2-0.2c0-2.4,0-4.7,0-7.1c0,0,0-0.1,0-0.1c-0.4,0-0.9,0-1.3,0
			c0-0.7,0-1.4,0-2.1c1.6,0,3.2,0,4.8,0C23.4,17.2,23.4,20.3,23.4,23.5z"/>
		<path d="M21.7,9.2c0.7,0,1.3,0.3,1.7,1c0.4,0.9,0.1,2.1-1,2.4c-0.6,0.2-1.1,0.2-1.6-0.1c-0.7-0.4-1-1.1-0.9-1.9
			C20,9.7,20.7,9.2,21.7,9.2z"/>
	</g>
</g>
</svg>
