<?xml version="1.0" encoding="UTF-8"?>
<svg id="Livello_2" data-name="Livello 2" xmlns="http://www.w3.org/2000/svg" viewBox="0 0 166.28 37.74">
  <g id="Livello_1-2" data-name="Livello 1">
    <g id="Livello_2-2" data-name="Livello 2">
      <g id="Livello_1-2" data-name="Livello 1-2">
        <polygon points="50.81 31.65 48.08 31.65 48.08 13.28 36.05 5.71 36.05 31.65 33.32 31.65 33.32 .77 50.81 11.78 50.81 31.65"/>
        <rect x="34.77" y="11.15" width="14.68" height="2.73"/>
        <polygon points="140.81 31.65 138.08 31.65 138.08 13.28 126.05 5.71 126.05 31.65 123.32 31.65 123.32 .77 140.81 11.78 140.81 31.65"/>
        <rect x="124.77" y="11.15" width="14.68" height="2.73"/>
        <polygon points="100.17 31.46 97.9 29.9 111.05 10.6 98.04 2.6 99.49 .27 114.9 9.76 100.17 31.46"/>
        <rect x="86.64" y=".66" width="2.73" height="30.97"/>
        <rect y="6.48" width="2.73" height="25.14"/>
        <polygon points="14.21 31.62 11.48 31.62 11.48 6.29 2.16 13.61 .46 11.45 14.21 .66 14.21 31.62"/>
        <polygon points="24.87 31.62 22.14 31.62 22.14 6.94 13.99 12.82 12.41 10.6 24.87 1.61 24.87 31.62"/>
        <path d="m70.87,37.74h-11.75V5.82l3.23,2.95L78.25.52v24l-16.32-12.46-.03.03-.05-.05v22.99h9.02v2.73Zm-6.26-27.09l10.91,8.34V5.03l-10.91,5.63Z"/>
        <polygon points="166.28 32.2 149.75 22 151.2 19.68 163.55 27.3 163.55 11.34 149.23 2.32 150.68 0 166.28 9.84 166.28 32.2"/>
        <rect x="156.39" y="11.05" width="8.94" height="2.73" transform="translate(9.14 67.31) rotate(-24.3)"/>
      </g>
    </g>
  </g>
</svg>