<?xml version="1.0" encoding="utf-8"?>
<!-- Generator: Adobe Illustrator 27.3.1, SVG Export Plug-In . SVG Version: 6.00 Build 0)  -->
<svg version="1.1" id="Capa_1" xmlns="http://www.w3.org/2000/svg" xmlns:xlink="http://www.w3.org/1999/xlink" x="0px" y="0px"
	 viewBox="0 0 83.3 37.2" style="enable-background:new 0 0 83.3 37.2;" xml:space="preserve">
<style type="text/css">
	.st0{fill:none;stroke:#000000;stroke-miterlimit:10;}
</style>
<g>
	<path d="M64.1,30h-1.3c-1.3,0-2.3-1-2.3-2.3v-7.9h0.7c1.8,0,3.3-1.5,3.3-3.3V8.8h-9.6v7.7c0,1.7,1.3,3.2,3,3.3c0.1,0,0.2,0,0.3,0
		h0.7v7.9c0,1.3-1,2.3-2.3,2.3h-1.5v-1.5h1.5c0.4,0,0.8-0.4,0.8-0.8v-6.4c-2.3-0.4-4.1-2.4-4.1-4.8V8.1c0-0.4,0.4-0.8,0.8-0.8h11
		c0.4,0,0.8,0.4,0.8,0.8v8.4c0,2.4-1.8,4.4-4.1,4.8v6.5c0,0.4,0.4,0.8,0.8,0.8h1.5V30z"/>
	<g>
		<path d="M70.4,29.9h-1.5V17.6h2.3c0.8,0,1.5-0.7,1.5-1.5V7.2h1.5V16c0,1.7-1.3,3-3,3h-0.8V29.9z"/>
		<rect x="70.1" y="7.2" width="1.5" height="5.3"/>
		<rect x="67.3" y="7.2" width="1.5" height="5.3"/>
	</g>
</g>
<g>
	<g>
		<g>
			<path d="M17.7,24.7H20V27h-2.3V24.7z M19.9,19.2l-0.6,4.6h-1.1l-0.6-4.6v-2.9h2.2v2.9H19.9z"/>
		</g>
	</g>
	<g>
		<path d="M18.7,10.4l10.7,18.5H8L18.7,10.4 M18.7,6.7l-13.9,24h27.8L18.7,6.7L18.7,6.7z"/>
	</g>
</g>
<rect x="0.9" y="0.8" class="st0" width="35.6" height="35.6"/>
<rect x="45.9" y="0.8" class="st0" width="35.6" height="35.6"/>
</svg>
