<?xml version="1.0" encoding="utf-8"?>
<!-- Generator: Adobe Illustrator 27.3.1, SVG Export Plug-In . SVG Version: 6.00 Build 0)  -->
<svg version="1.1" id="Capa_1" xmlns="http://www.w3.org/2000/svg" xmlns:xlink="http://www.w3.org/1999/xlink" x="0px" y="0px"
	 viewBox="0 0 131 38.5" style="enable-background:new 0 0 131 38.5;" xml:space="preserve">
<style type="text/css">
	.st0{fill:none;stroke:#000000;stroke-miterlimit:10;}
</style>
<g id="CEjoqj.tif_00000067949810361845935310000013509863898308389790_">
	<g>
		<path d="M99.8,20c0-0.5,0-1,0-1.6c0.1-0.5,0.1-1.1,0.2-1.6c1.5-8,10.5-12.4,17.8-8.7c5.1,2.6,7.7,8.2,6.5,13.8
			c-1.1,4.8-5.1,8.7-10,9.5c-0.5,0.1-0.9,0.1-1.4,0.2c-0.5,0-1,0-1.6,0c-0.1,0-0.1,0-0.2,0c-0.6-0.1-1.1-0.1-1.7-0.2
			c-4.8-1-8.8-5.1-9.6-9.9C99.9,20.9,99.8,20.4,99.8,20z M107,13.9c-0.4,1.6-0.7,3.2-0.7,4.8c1.8,0,3.6,0,5.4,0c0-1.6,0-3.2,0-4.8
			C110.1,13.9,108.5,13.9,107,13.9z M118.2,18.7c0-1.7-0.3-3.3-0.7-4.8c-1.6,0-3.2,0-4.7,0c0,1.6,0,3.2,0,4.8
			C114.5,18.7,116.3,18.7,118.2,18.7z M106.3,19.7C106.3,19.8,106.3,19.8,106.3,19.7c0,1.6,0.2,3.1,0.6,4.6c0,0.2,0.1,0.2,0.3,0.2
			c1.4,0,2.9,0,4.3,0c0.1,0,0.1,0,0.2,0c0-1.6,0-3.2,0-4.7C109.9,19.7,108.1,19.7,106.3,19.7z M112.7,24.5c0.1,0,0.2,0,0.2,0
			c1.4,0,2.9,0,4.3,0c0.2,0,0.3-0.1,0.3-0.2c0.3-1.3,0.5-2.5,0.6-3.8c0-0.2,0-0.4,0-0.6c-1.8,0-3.6,0-5.4,0
			C112.7,21.3,112.7,22.9,112.7,24.5z M105.2,18.7c0-1.6,0.2-3.2,0.7-4.8c-0.1,0-0.1,0-0.1,0c-1.2,0-2.3,0-3.5,0
			c-0.1,0-0.2,0.1-0.2,0.2c-0.5,1-0.9,2.2-1.1,3.3c-0.1,0.4-0.1,0.9-0.2,1.3C102.3,18.7,103.7,18.7,105.2,18.7z M123.5,18.7
			C123.5,18.7,123.6,18.7,123.5,18.7c-0.1-1.7-0.5-3.2-1.2-4.7c-0.1-0.1-0.2-0.1-0.3-0.1c-1.1,0-2.2,0-3.3,0c-0.1,0-0.1,0-0.2,0
			c0.4,1.6,0.6,3.2,0.7,4.8C120.7,18.7,122.1,18.7,123.5,18.7z M100.8,19.7v0.1c0.1,1.6,0.5,3.1,1.2,4.5c0.1,0.1,0.2,0.2,0.3,0.2
			c0.9,0,1.7,0,2.6,0c0.3,0,0.6,0,1,0c-0.4-1.6-0.6-3.1-0.6-4.7C103.7,19.7,102.3,19.7,100.8,19.7z M123.6,19.8c-1.5,0-2.9,0-4.4,0
			c0,1.6-0.2,3.2-0.6,4.7c0.1,0,0.1,0,0.1,0c1.1,0,2.3,0,3.4,0c0.1,0,0.2-0.1,0.2-0.2c0.5-0.9,0.8-1.9,1-3
			C123.5,20.8,123.5,20.3,123.6,19.8z M111.7,30.5c0-1.7,0-3.4,0-5c-1.5,0-2.9,0-4.4,0c0.5,1.5,1.2,2.8,2.4,3.9
			C110.2,30,110.9,30.4,111.7,30.5z M112.7,25.5c0,1.7,0,3.3,0,5c0.6-0.1,1.1-0.3,1.5-0.6c1-0.7,1.6-1.6,2.2-2.6
			c0.3-0.6,0.5-1.2,0.8-1.8C115.7,25.5,114.2,25.5,112.7,25.5z M111.7,7.9c-0.1,0-0.2,0-0.3,0.1c-0.7,0.2-1.2,0.5-1.7,1
			c-1.1,1-1.7,2.2-2.3,3.5c0,0.1-0.1,0.2-0.1,0.4c1.5,0,2.9,0,4.4,0C111.7,11.2,111.7,9.6,111.7,7.9z M112.7,7.9c0,1.7,0,3.3,0,4.9
			c1.5,0,2.9,0,4.4,0c-0.2-0.4-0.4-0.9-0.6-1.3c-0.5-1.1-1.2-2.1-2.1-2.8C114,8.3,113.4,8,112.7,7.9z M108.7,30
			c-1.2-1.3-2-2.9-2.6-4.5c-1.2,0-2.3,0-3.5,0C104.2,27.7,106.2,29.2,108.7,30z M102.7,12.8c0.1,0,0.1,0,0.2,0c1,0,2.1,0,3.1,0
			c0.2,0,0.2-0.1,0.2-0.2c0.3-0.9,0.7-1.8,1.2-2.6c0.4-0.6,0.8-1.1,1.3-1.7C106.3,9.1,104.3,10.6,102.7,12.8z M115.6,8.4
			c0.1,0.2,0.3,0.3,0.4,0.5c1,1.1,1.6,2.4,2.1,3.8c0.1,0.1,0.1,0.2,0.3,0.2c1,0,2,0,3,0c0.1,0,0.1,0,0.2,0
			C120.1,10.6,118.1,9.2,115.6,8.4z M115.8,30c1.5-0.1,5.4-3.1,5.8-4.5c-1.1,0-2.1,0-3.2,0c-0.2,0-0.2,0.1-0.3,0.2
			c-0.4,0.8-0.7,1.7-1.1,2.5C116.7,28.8,116.2,29.4,115.8,30z"/>
	</g>
</g>
<path d="M23.7,17.8c0.5-0.3,1.1-0.6,1.6-0.9c0.1,0,0.2,0,0.3,0c1.5,0.5,2.9,1,4.4,1.5c0.6,0.2,0.8,0.1,1.1-0.4c0-0.1,0-0.2,0-0.3
	c-0.1-0.3-0.4-0.5-0.7-0.6c-0.6-0.2-1.2-0.4-1.8-0.6c-0.6-0.2-1.1-0.4-1.7-0.6c0.1-0.1,0.2-0.1,0.3-0.2c1-0.6,2.1-1.2,3.1-1.8
	c0.3-0.2,0.4-0.5,0.3-0.8s-0.4-0.5-0.7-0.4c-0.1,0-0.3,0.1-0.4,0.2c-1,0.6-2,1.2-3.1,1.8c-0.1,0-0.2,0.1-0.3,0.2
	c0-0.2,0-0.3,0.1-0.4c0.2-1.1,0.4-2.2,0.6-3.3c0.1-0.4,0-0.6-0.3-0.8c-0.4-0.3-0.9,0-1,0.6c-0.3,1.5-0.6,3-0.9,4.5
	c0,0.2-0.1,0.3-0.3,0.4c-0.5,0.3-1,0.6-1.5,0.9c-0.1,0.1-0.2,0.1-0.3,0c-0.9-0.5-1.8-1-2.6-1.5c-0.1-0.1-0.2-0.2-0.2-0.3
	c0-0.6,0-1.2,0-1.8c0-0.1,0.1-0.2,0.1-0.3c0.4-0.4,0.9-0.8,1.3-1.1c0.8-0.7,1.6-1.3,2.3-2c0.3-0.3,0.4-0.7,0-1
	c-0.3-0.2-0.6-0.2-0.9,0c-0.9,0.8-1.8,1.6-2.7,2.4c-0.1,0-0.1,0.1-0.2,0.2c0-0.8,0-1.5,0-2.2c0-0.6,0-1.2,0-1.8
	c0-0.3-0.1-0.5-0.4-0.6c-0.2-0.1-0.5-0.1-0.7,0.1s-0.3,0.4-0.3,0.6c0,1.2,0,2.4,0,3.6c0,0.1,0,0.2,0,0.3c-0.1-0.1-0.2-0.1-0.2-0.2
	c-0.6-1.1-1.4-1.8-2.3-2.6c-0.1-0.1-0.2-0.2-0.3-0.2C15,8.2,14.5,8.5,14.5,9c0,0.2,0.1,0.4,0.3,0.6c1.2,1,2.4,2.1,3.5,3.1
	c0.1,0.1,0.2,0.2,0.2,0.3c0,0.6,0,1.2,0,1.8c0,0.1,0,0.2-0.2,0.3c-0.9,0.5-1.8,1-2.7,1.6c-0.1,0-0.2,0-0.3,0
	c-0.5-0.3-1.1-0.6-1.6-0.9c-0.1-0.1-0.2-0.2-0.2-0.3c-0.2-1.1-0.4-2.2-0.7-3.3c-0.1-0.5-0.2-1-0.3-1.5c-0.1-0.3-0.4-0.5-0.7-0.4
	c-0.4,0.1-0.6,0.4-0.5,0.7c0,0.2,0.1,0.3,0.1,0.5c0.2,1.1,0.4,2.2,0.6,3.3c-0.1-0.1-0.2-0.1-0.3-0.2c-1-0.6-2.1-1.2-3.1-1.8
	c-0.2-0.2-0.6-0.2-0.8,0.1c-0.2,0.2-0.2,0.5-0.1,0.8C7.8,13.8,7.9,13.9,8,14c1,0.6,2,1.2,3.1,1.8c0.1,0,0.1,0.1,0.3,0.2
	c-1.2,0.4-2.3,0.8-3.5,1.2c-0.1,0-0.2,0.1-0.4,0.2c-0.3,0.2-0.4,0.6-0.2,0.9c0.2,0.3,0.5,0.3,0.8,0.2c1.5-0.5,2.9-1,4.4-1.5
	c0.2-0.1,0.4-0.1,0.6,0.1c0.5,0.3,1,0.6,1.5,0.8c0.1,0.1,0.2,0.2,0.2,0.3c0,1,0,2.1,0,3.1c0,0.2-0.1,0.3-0.2,0.3
	c-0.5,0.3-1,0.6-1.5,0.9c-0.2,0.1-0.3,0.1-0.5,0c-1.5-0.5-3-1-4.5-1.5c-0.4-0.1-0.8,0-0.9,0.4s0.1,0.7,0.5,0.9
	c0.5,0.2,0.9,0.3,1.4,0.5c0.7,0.2,1.4,0.5,2.2,0.7c-0.1,0.1-0.2,0.1-0.3,0.2c-0.7,0.4-1.4,0.8-2.1,1.2c-0.4,0.2-0.7,0.4-1.1,0.6
	c-0.3,0.2-0.4,0.5-0.3,0.8s0.4,0.4,0.7,0.4c0.1,0,0.3-0.1,0.4-0.2c1-0.6,2-1.2,3.1-1.8c0.1,0,0.2-0.1,0.3-0.2
	c-0.2,0.8-0.3,1.6-0.5,2.4c-0.1,0.5-0.2,0.9-0.3,1.4c-0.1,0.4,0.1,0.7,0.5,0.8c0.3,0.1,0.6-0.1,0.7-0.4c0-0.1,0.1-0.2,0.1-0.3
	c0.3-1.5,0.6-3.1,0.9-4.6c0-0.1,0.1-0.2,0.2-0.3c0.5-0.3,1.1-0.6,1.6-0.9c0.1,0,0.2,0,0.3,0c0.9,0.5,1.8,1,2.7,1.6
	c0.1,0,0.1,0.2,0.1,0.3c0,0.6,0,1.2,0,1.9c0,0.1-0.1,0.2-0.1,0.3c-0.3,0.3-0.6,0.5-0.9,0.8c-0.9,0.8-1.8,1.6-2.7,2.4
	c-0.3,0.3-0.4,0.7-0.1,1c0.3,0.3,0.6,0.3,0.9,0c0.9-0.8,1.8-1.6,2.7-2.4c0.1,0,0.1-0.1,0.2-0.2c0,0.1,0,0.2,0,0.3c0,1.2,0,2.4,0,3.5
	c0,0.4,0.1,0.7,0.5,0.9c0.1,0,0.2,0,0.3,0c0.4-0.2,0.5-0.5,0.5-0.9c0-1.2,0-2.3,0-3.5c0-0.1,0-0.2,0-0.3c0.1,0.1,0.1,0.1,0.2,0.2
	c0.9,0.8,1.7,1.5,2.6,2.3c0.1,0.1,0.4,0.2,0.5,0.3c0.3,0,0.5-0.1,0.6-0.3c0.1-0.3,0.1-0.5-0.1-0.7c-0.1-0.1-0.2-0.2-0.3-0.3
	c-1.1-1-2.3-2-3.4-2.9c-0.1-0.1-0.2-0.2-0.2-0.4c0-0.6,0-1.2,0-1.8c0-0.1,0-0.2,0.2-0.3c0.9-0.5,1.8-1,2.6-1.5
	c0.1-0.1,0.2-0.1,0.4,0c0.5,0.3,1,0.6,1.5,0.8c0.2,0.1,0.3,0.2,0.3,0.4c0.3,1.5,0.6,3,0.9,4.5c0,0.1,0.1,0.3,0.2,0.4
	c0.2,0.2,0.5,0.3,0.7,0.2c0.3-0.1,0.5-0.4,0.4-0.7c-0.2-1-0.4-1.9-0.6-2.9C26,25.3,26,25,25.9,24.7c0.7,0.4,1.4,0.8,2,1.2
	c0.5,0.3,0.9,0.5,1.4,0.8c0.4,0.2,0.8,0.1,1-0.2c0.2-0.3,0.1-0.7-0.3-0.9c-1-0.6-2.1-1.2-3.1-1.8c-0.1,0-0.2-0.1-0.3-0.2
	c0.3-0.1,0.6-0.2,0.9-0.3c0.8-0.3,1.7-0.6,2.5-0.9c0.3-0.1,0.5-0.3,0.7-0.6c0-0.1,0-0.2,0-0.3c0,0,0-0.1-0.1-0.1
	c-0.2-0.4-0.5-0.5-0.9-0.3c-1.5,0.5-2.9,1-4.4,1.5c-0.2,0.1-0.4,0.1-0.6-0.1c-0.5-0.3-1-0.6-1.5-0.9c-0.1-0.1-0.2-0.1-0.2-0.3
	c0-1.1,0-2.1,0-3.2C23.5,18,23.6,17.8,23.7,17.8z"/>
<path d="M65.6,31.3h-1.3c-1.3,0-2.3-1-2.3-2.3v-7.9h0.7c1.8,0,3.3-1.5,3.3-3.3v-7.7h-9.6v7.7c0,1.7,1.3,3.2,3,3.3c0.1,0,0.2,0,0.3,0
	h0.7V29c0,1.3-1,2.3-2.3,2.3h-1.5v-1.5h1.5c0.4,0,0.8-0.4,0.8-0.8v-6.4c-2.3-0.4-4.1-2.4-4.1-4.8V9.4c0-0.4,0.4-0.8,0.8-0.8h11
	c0.4,0,0.8,0.4,0.8,0.8v8.4c0,2.4-1.8,4.4-4.1,4.8v6.5c0,0.4,0.4,0.8,0.8,0.8h1.5V31.3z"/>
<g>
	<path d="M71.9,31.2h-1.5V19h2.3c0.8,0,1.5-0.7,1.5-1.5V8.6h1.5v8.8c0,1.7-1.3,3-3,3h-0.8V31.2z"/>
	<rect x="71.6" y="8.6" width="1.5" height="5.3"/>
	<rect x="68.8" y="8.6" width="1.5" height="5.3"/>
</g>
<rect x="0.6" y="0.6" class="st0" width="37.2" height="37.2"/>
<rect x="46.7" y="0.6" class="st0" width="37.2" height="37.2"/>
<rect x="93.1" y="0.6" class="st0" width="37.2" height="37.2"/>
</svg>
