<?xml version="1.0" encoding="UTF-8"?>
<svg id="Capa_1" data-name="Capa 1" xmlns="http://www.w3.org/2000/svg" viewBox="0 0 131 38.5">
  <defs>
    <style>
      .cls-1 {
        fill: none;
        stroke: #000;
        stroke-miterlimit: 10;
      }
    </style>
  </defs>
  <g id="CEjoqj.tif">
    <path d="m99.8,20v-1.6c.1-.5.1-1.1.2-1.6,1.5-8,10.5-12.4,17.8-8.7,5.1,2.6,7.7,8.2,6.5,13.8-1.1,4.8-5.1,8.7-10,9.5-.5.1-.9.1-1.4.2h-1.8c-.6-.1-1.1-.1-1.7-.2-4.8-1-8.8-5.1-9.6-9.9.1-.6,0-1.1,0-1.5Zm7.2-6.1c-.4,1.6-.7,3.2-.7,4.8h5.4v-4.8c-1.6,0-3.2,0-4.7,0Zm11.2,4.8c0-1.7-.3-3.3-.7-4.8h-4.7v4.8h5.4Zm-11.9,1q0,.1,0,0c0,1.6.2,3.1.6,4.6,0,.2.1.2.3.2h4.5v-4.7c-1.8-.1-3.6-.1-5.4-.1Zm6.4,4.8h4.5c.2,0,.3-.1.3-.2.3-1.3.5-2.5.6-3.8v-.6h-5.4v4.6Zm-7.5-5.8c0-1.6.2-3.2.7-4.8h-3.6c-.1,0-.2.1-.2.2-.5,1-.9,2.2-1.1,3.3-.1.4-.1.9-.2,1.3,1.5,0,2.9,0,4.4,0Zm18.3,0s.1,0,0,0c-.1-1.7-.5-3.2-1.2-4.7-.1-.1-.2-.1-.3-.1h-3.5c.4,1.6.6,3.2.7,4.8h4.3Zm-22.7,1v.1c.1,1.6.5,3.1,1.2,4.5.1.1.2.2.3.2h3.6c-.4-1.6-.6-3.1-.6-4.7-1.6-.1-3-.1-4.5-.1Zm22.8.1h-4.4c0,1.6-.2,3.2-.6,4.7h3.5c.1,0,.2-.1.2-.2.5-.9.8-1.9,1-3,.2-.5.2-1,.3-1.5Zm-11.9,10.7v-5h-4.4c.5,1.5,1.2,2.8,2.4,3.9.5.6,1.2,1,2,1.1Zm1-5v5c.6-.1,1.1-.3,1.5-.6,1-.7,1.6-1.6,2.2-2.6.3-.6.5-1.2.8-1.8h-4.5Zm-1-17.6c-.1,0-.2,0-.3.1-.7.2-1.2.5-1.7,1-1.1,1-1.7,2.2-2.3,3.5,0,.1-.1.2-.1.4h4.4v-5Zm1,0v4.9h4.4c-.2-.4-.4-.9-.6-1.3-.5-1.1-1.2-2.1-2.1-2.8-.4-.4-1-.7-1.7-.8Zm-4,22.1c-1.2-1.3-2-2.9-2.6-4.5h-3.5c1.6,2.2,3.6,3.7,6.1,4.5Zm-6-17.2h3.3c.2,0,.2-.1.2-.2.3-.9.7-1.8,1.2-2.6.4-.6.8-1.1,1.3-1.7-2.4.8-4.4,2.3-6,4.5Zm12.9-4.4c.1.2.3.3.4.5,1,1.1,1.6,2.4,2.1,3.8.1.1.1.2.3.2h3.2c-1.5-2.3-3.5-3.7-6-4.5Zm.2,21.6c1.5-.1,5.4-3.1,5.8-4.5h-3.2c-.2,0-.2.1-.3.2-.4.8-.7,1.7-1.1,2.5-.3.6-.8,1.2-1.2,1.8Z"/>
  </g>
  <rect class="cls-1" x=".6" y=".6" width="37.2" height="37.2"/>
  <rect class="cls-1" x="46.7" y=".6" width="37.2" height="37.2"/>
  <rect class="cls-1" x="93.1" y=".6" width="37.2" height="37.2"/>
  <g>
    <path d="m73.45,19.53c-1.1-.55-2.18-1.09-3.26-1.63-.65-.33-1.31-.66-1.96-.98-.04-.02-.08-.03-.12-.04-.33-.08-.59-.27-.76-.57-.04-.07-.09-.09-.17-.09-3.73,0-7.47,0-11.2,0-.03,0-.06,0-.11,0,.1.41.23.79.38,1.17.29.77.73,1.44,1.23,2.09.53.7,1.09,1.38,1.56,2.12.7,1.1,1.13,2.32,1.35,3.6.12.69.1,1.4.14,2.09.05,1,.09,2.01.14,3.01.01.28.16.42.44.42,2.16,0,4.32,0,6.48,0,.19,0,.38-.02.57-.06.37-.08.57-.31.67-.67.1-.34.05-.67.01-1.01-.05-.45-.11-.91-.15-1.36-.04-.46.26-.71.71-.6.36.09.63.4.68.77.07.56.17,1.13.18,1.7.01.63-.15,1.23-.54,1.75-.35.47-.86.67-1.41.77-.38.07-.77.09-1.16.09-2.02,0-4.03,0-6.05,0-1.01,0-1.77-.74-1.8-1.75-.06-1.5-.12-2.99-.2-4.49-.05-.88-.34-1.7-.67-2.52-.31-.77-.81-1.41-1.3-2.07-.44-.58-.88-1.15-1.29-1.74-.68-1-1.08-2.11-1.35-3.28-.02-.1-.06-.14-.15-.19-.72-.34-1.12-.91-1.13-1.71,0-.79.38-1.37,1.09-1.72.08-.04.12-.09.13-.17.56-3.03,2.95-5.43,5.97-6,.5-.1,1.01-.14,1.52-.14,1.33,0,2.65-.04,3.98.01,2.72.1,4.8,1.32,6.17,3.7.05.09.08.11.18.06.27-.12.55-.23.82-.35.04-.02.08-.03.11-.05.3-.24.66-.31,1.04-.3.6,0,1.2,0,1.81,0,.71,0,1.24.41,1.39,1.07.03.12.04.25.04.38,0,2.46,0,4.91,0,7.37,0,.85-.58,1.43-1.43,1.43-.26,0-.51,0-.77,0-.08,0-.11.02-.13.1-.06.34-.25.59-.55.77-.16.09-.3.2-.46.3-.19.13-.29.31-.24.54.24,1.06.26,2.15.35,3.22.09,1.06-.56,1.93-1.58,2.14-.39.08-.77,0-1.15-.05-1.32-.2-2.65-.4-3.97-.61-.96-.15-1.93-.29-2.89-.44-.4-.06-.65-.4-.59-.78.06-.38.4-.62.8-.57.45.06.89.14,1.34.2,1.26.19,2.52.38,3.78.58.71.11,1.41.21,2.12.32.51.08.82-.17.78-.69-.08-1.27-.16-2.54-.48-3.78-.09-.34.02-.59.31-.79.25-.18.51-.35.76-.53.01,0,.02-.02.03-.04Zm-11.91-7.07c1.87,0,3.74,0,5.62,0,.09,0,.15-.02.2-.11.17-.29.42-.46.75-.54.04,0,.07-.02.11-.03.82-.35,1.65-.7,2.47-1.04.11-.05.15-.08.07-.2-1.08-1.77-2.67-2.71-4.71-2.83-1.42-.08-2.84-.02-4.26-.02-.39,0-.78.03-1.17.12-2.48.57-4.07,2.07-4.79,4.51-.04.13,0,.15.12.15,1.86,0,3.73,0,5.59,0Zm-.54.69c-1.95,0-3.9,0-5.85,0-.15,0-.31,0-.46.05-.57.19-.91.74-.82,1.34.09.58.6,1,1.22,1,3.98,0,7.96,0,11.95,0,.12,0,.13-.04.13-.14,0-.7,0-1.39,0-2.09,0-.14-.04-.17-.17-.16-2,0-4.01,0-6.01,0Zm12.31-2.02s-.06,0-.08.01c-1.19.49-2.38.97-3.57,1.46-.09.04-.09.1-.09.17,0,1.05.02,2.11.02,3.16,0,.1.03.15.12.2,1.04.52,2.09,1.04,3.13,1.55.15.08.31.15.47.23v-6.79Zm2.74,3.38h0c0-1.21,0-2.42,0-3.62,0-.1-.02-.14-.13-.13-.37,0-.75,0-1.12,0-.1,0-.12.03-.12.13,0,2.42,0,4.84,0,7.26,0,.11.04.13.14.13.36,0,.73,0,1.09,0,.12,0,.15-.03.14-.15,0-1.2,0-2.41,0-3.61Zm-7.51-.16c0-.42,0-.85,0-1.27,0-.05,0-.09-.01-.14-.02-.09-.09-.13-.18-.13-.08,0-.14.06-.15.14,0,.05,0,.09,0,.14,0,.84,0,1.67,0,2.51,0,.05,0,.09,0,.14.01.08.07.13.15.14.09,0,.15-.04.17-.13.01-.04,0-.09,0-.14,0-.42,0-.84,0-1.26Z"/>
    <path d="m54.54,14.34c0-.29.23-.51.52-.51.28,0,.5.23.5.51,0,.29-.23.52-.52.51-.28,0-.5-.23-.5-.51Z"/>
    <path d="m57.27,14.34c0,.28-.22.51-.5.51-.29,0-.52-.23-.51-.51,0-.29.23-.51.52-.51.28,0,.5.23.5.51Z"/>
    <path d="m58.98,14.34c0,.28-.22.51-.51.51-.29,0-.51-.23-.51-.51,0-.29.23-.51.52-.51.28,0,.5.23.5.51Z"/>
  </g>
  <path d="m32.74,13.49c0-.36-.05-.71-.41-.91-.27-.15-.56-.22-.85-.05-.27.16-.46.39-.44.74,0,.09,0,.17,0,.3-.55-.29-1.07-.57-1.58-.85-1.51-.8-3.02-1.61-4.54-2.41-1.32-.7-4.9-2.35-4.9-2.35v-1.09c0-.27,0-.62-.2-.89-.18-.23-.58-.39-.86-.3-.38.12-.62.41-.63.76v1.41c-.94.49-2.16.95-3.1,1.46-1.38.74-2.75,1.48-4.13,2.22-1.04.56-2.09,1.1-3.13,1.66-.21.11-.42.23-.63.35-.06-.34-.04-.68-.36-.9-.56-.39-1.09-.15-1.3.33,0,.02-.03.03-.05.05v12.33c.15.4.5.58.85.77,1.53.82,3.07,1.64,4.6,2.46,1,.53,2,1.06,3,1.59,1.51.8,3.02,1.61,4.53,2.42.12.06.24.12.36.18h.37c1.61-.85,3.23-1.69,4.83-2.54,1.04-.55,2.07-1.12,3.11-1.67,1.61-.86,3.22-1.7,4.83-2.57.42-.22.62-.58.62-1.08,0-3.8,0-7.6,0-11.4Zm-1.71,2.89v.57c-.17-.09-.32-.17-.53-.29.21-.11.36-.19.53-.28Zm-.96-1.41c-.41.22-.78.4-1.13.6-.17.1-.31.1-.48,0-1.88-1.01-3.77-2.01-5.66-3.02-.87-.46-1.75-.92-2.61-1.4-.07-.04-.13-.15-.14-.23-.01-.42,0-.85,0-1.31,3.35,1.79,6.68,3.56,10.03,5.35Zm0,3.39c-3.36,1.79-6.68,3.56-10.01,5.34v-1.47c1.57-.83,3.15-1.67,4.72-2.51,1.22-.65,2.45-1.3,3.67-1.97.18-.1.32-.1.5,0,.36.21.73.4,1.12.61Zm-11.72-8.76c0,.49,0,.94,0,1.39,0,.06-.1.13-.17.17-.95.51-1.91,1.02-2.86,1.53-1.4.74-2.8,1.49-4.2,2.23-.42.22-.84.46-1.26.67-.09.05-.24.08-.32.04-.4-.2-.79-.42-1.26-.67,3.39-1.81,6.71-3.58,10.08-5.37Zm-11,6.8c.17.09.33.18.5.28-.19.09-.34.16-.5.24v-.52Zm10.98,14.09c-1.13-.6-2.25-1.2-3.36-1.79-1.44-.77-2.89-1.54-4.33-2.3-1.04-.56-2.09-1.11-3.13-1.67-.08-.04-.16-.16-.16-.25,0-1.55,0-3.1,0-4.69.38.2.75.39,1.11.58.76.4,1.51.81,2.27,1.21,1.62.86,3.24,1.73,4.86,2.59.87.47,1.74.93,2.61,1.41.07.04.15.15.15.22,0,1.53,0,3.07,0,4.6,0,.02,0,.03-.02.08Zm.03-6.76c-3.36-1.79-6.69-3.56-10.08-5.37.47-.25.88-.48,1.29-.68.07-.03.19,0,.27.05,1.17.62,2.33,1.26,3.5,1.88.71.38,1.43.75,2.14,1.13.92.49,1.83.98,2.74,1.48.06.03.12.11.12.16.01.44,0,.87,0,1.35Zm.76-4.53c-.45.01-.71.38-.77,1.13-2.28-1.22-4.55-2.43-6.86-3.66.11-.07.17-.13.24-.17,1.24-.66,2.49-1.31,3.73-1.97,1.17-.62,2.33-1.26,3.51-1.88.12-.06.33-.06.45,0,1.65.86,3.29,1.74,4.93,2.62.76.4,1.51.81,2.27,1.22.1.05.19.11.29.17-2.29,1.22-4.55,2.43-6.82,3.64-.06-.75-.38-1.12-.95-1.11Zm11.73,5.53c-1.57.83-3.12,1.67-4.69,2.51-.96.51-1.92,1-2.87,1.51-1.02.54-2.04,1.09-3.07,1.63-.05.03-.1.05-.16.07v-4.83c3.65-1.95,7.31-3.9,10.99-5.86,0,.1.01.17.01.25,0,1.45,0,2.91,0,4.36,0,.18-.06.28-.22.36Z"/>
</svg>