<?xml version="1.0" encoding="utf-8"?>
<!-- Generator: Adobe Illustrator 27.3.1, SVG Export Plug-In . SVG Version: 6.00 Build 0)  -->
<svg version="1.1" id="Capa_1" xmlns="http://www.w3.org/2000/svg" xmlns:xlink="http://www.w3.org/1999/xlink" x="0px" y="0px"
	 viewBox="0 0 37.2 37.2" style="enable-background:new 0 0 37.2 37.2;" xml:space="preserve">
<g>
	<path d="M0,0v37.2h37.2V0H0z M35.7,35.7H1.5V1.5h34.2V35.7z"/>
	<path d="M16.3,19v4.8c-1.1,0.9-1.8,2.2-1.8,3.7c0,2.6,2.1,4.7,4.7,4.7s4.7-2.1,4.7-4.7c0-1.5-0.7-2.9-1.8-3.7V13.3l5.3-5.3h2.9V6.5
		h-3.5L22,11.2V8.7c0-1.6-1.3-2.9-2.9-2.9s-2.9,1.3-2.9,2.9v8.3l-7.7,7.7H5.8v1.5h3.4L16.3,19z M17.4,8.7c0-1,0.8-1.8,1.8-1.8
		s1.8,0.8,1.8,1.8v3.6l-3.5,3.5V8.7z"/>
</g>
</svg>
