<?xml version="1.0" encoding="utf-8"?>
<!-- Generator: Adobe Illustrator 27.3.1, SVG Export Plug-In . SVG Version: 6.00 Build 0)  -->
<svg version="1.1" id="Capa_1" xmlns="http://www.w3.org/2000/svg" xmlns:xlink="http://www.w3.org/1999/xlink" x="0px" y="0px"
	 viewBox="0 0 42.3 36.7" style="enable-background:new 0 0 42.3 36.7;" xml:space="preserve">
<g id="CEjoqj.tif">
	<g>
		<path d="M3.1,19.5c0-0.8,0-1.5,0-2.3c0.1-0.8,0.2-1.6,0.3-2.4C5.7,3.2,18.7-3.1,29.3,2.3c7.4,3.8,11.2,11.9,9.4,20
			c-1.5,7-7.4,12.6-14.5,13.8c-0.7,0.1-1.3,0.2-2,0.3c-0.8,0-1.5,0-2.3,0c-0.1,0-0.2,0-0.2-0.1c-0.8-0.1-1.7-0.2-2.5-0.4
			c-7-1.4-12.8-7.4-13.9-14.4C3.3,20.8,3.2,20.2,3.1,19.5z M13.6,10.6c-0.6,2.3-1,4.6-1,7c2.6,0,5.3,0,7.9,0c0-2.3,0-4.7,0-7
			C18.1,10.6,15.9,10.6,13.6,10.6z M29.8,17.6c0-2.4-0.4-4.7-1-7c-2.3,0-4.6,0-6.9,0c0,2.3,0,4.7,0,7C24.6,17.6,27.2,17.6,29.8,17.6
			z M12.6,19.2c0,0.1,0,0.1,0,0.1c0,2.2,0.3,4.4,0.9,6.5c0.1,0.2,0.2,0.2,0.4,0.2c2.1,0,4.2,0,6.3,0c0.1,0,0.2,0,0.3,0
			c0-2.3,0-4.6,0-6.8C17.8,19.2,15.2,19.2,12.6,19.2z M21.9,26c0.1,0,0.2,0,0.3,0c2.1,0,4.1,0,6.2,0c0.3,0,0.4-0.1,0.4-0.4
			c0.5-1.8,0.7-3.7,0.8-5.6c0-0.3,0-0.6,0-0.9c-2.6,0-5.2,0-7.9,0C21.9,21.5,21.9,23.7,21.9,26z M11.1,17.6c0.1-2.4,0.4-4.7,1-7
			c-0.1,0-0.1,0-0.2,0c-1.7,0-3.4,0-5.1,0c-0.1,0-0.3,0.1-0.4,0.2c-0.8,1.5-1.3,3.1-1.6,4.8c-0.1,0.6-0.1,1.3-0.2,2
			C6.8,17.6,8.9,17.6,11.1,17.6z M37.6,17.6C37.6,17.6,37.6,17.6,37.6,17.6c-0.1-2.5-0.7-4.7-1.8-6.8c-0.1-0.2-0.2-0.2-0.4-0.2
			c-1.6,0-3.2,0-4.8,0c-0.1,0-0.2,0-0.3,0c0.6,2.3,0.9,4.6,1,7C33.4,17.6,35.5,17.6,37.6,17.6z M4.7,19.2c0,0.1,0,0.1,0,0.1
			c0.1,2.3,0.7,4.4,1.7,6.5C6.5,26,6.6,26,6.8,26c1.2,0,2.5,0,3.7,0c0.5,0,0.9,0,1.4,0c-0.6-2.3-0.9-4.6-0.9-6.9
			C8.9,19.2,6.8,19.2,4.7,19.2z M37.7,19.2c-2.2,0-4.3,0-6.4,0c0,2.3-0.3,4.6-0.9,6.8c0.1,0,0.1,0,0.2,0c1.7,0,3.3,0,5,0
			c0.1,0,0.3-0.1,0.4-0.2c0.7-1.4,1.2-2.8,1.5-4.3C37.5,20.7,37.6,19.9,37.7,19.2z M20.4,34.8c0-2.4,0-4.9,0-7.3c-2.1,0-4.3,0-6.4,0
			c0.8,2.1,1.8,4.1,3.4,5.7C18.3,34,19.2,34.6,20.4,34.8z M21.9,27.5c0,2.4,0,4.8,0,7.3c0.8-0.1,1.5-0.5,2.2-0.9
			c1.4-1,2.4-2.3,3.1-3.8c0.4-0.8,0.8-1.7,1.2-2.6C26.2,27.5,24.1,27.5,21.9,27.5z M20.4,2c-0.2,0-0.3,0.1-0.4,0.1
			c-1,0.2-1.8,0.8-2.5,1.4C16,4.9,15,6.7,14.3,8.6c-0.1,0.2-0.1,0.3-0.2,0.5c2.2,0,4.3,0,6.4,0C20.4,6.8,20.4,4.4,20.4,2z M21.9,2
			c0,2.4,0,4.8,0,7.1c2.1,0,4.2,0,6.4,0c-0.3-0.6-0.5-1.2-0.8-1.8c-0.8-1.6-1.7-3-3.1-4.1C23.7,2.6,22.9,2.2,21.9,2z M16.2,34.1
			c-1.8-1.9-2.9-4.1-3.7-6.5c-1.7,0-3.3,0-5,0C9.6,30.7,12.5,32.9,16.2,34.1z M7.4,9.1c0.1,0,0.2,0,0.2,0c1.5,0,3,0,4.6,0
			c0.2,0,0.3-0.1,0.3-0.3c0.5-1.3,1-2.6,1.8-3.8c0.6-0.9,1.2-1.7,1.8-2.5C12.6,3.8,9.7,5.9,7.4,9.1z M26.1,2.6
			c0.2,0.2,0.4,0.5,0.6,0.7c1.4,1.6,2.3,3.5,3,5.5c0.1,0.2,0.2,0.3,0.4,0.3c1.5,0,2.9,0,4.4,0c0.1,0,0.2,0,0.3,0
			C32.6,6,29.8,3.8,26.1,2.6z M26.4,34c2.2-0.2,7.9-4.5,8.5-6.5c-1.5,0-3,0-4.6,0c-0.2,0-0.3,0.1-0.4,0.3c-0.5,1.2-1,2.4-1.6,3.6
			C27.7,32.3,27,33.2,26.4,34z"/>
	</g>
</g>
</svg>
